<?xml version="1.0" encoding="UTF-8"?>
<svg id="Livello_1" xmlns="http://www.w3.org/2000/svg" version="1.1" viewBox="0 0 605 180">
  <!-- Generator: Adobe Illustrator 29.0.0, SVG Export Plug-In . SVG Version: 2.1.0 Build 186)  -->
  <defs>
    <style>
      .st0 {
        fill: #4caf4a;
      }

      .st1 {
        fill-rule: evenodd;
        fill: #FFFFFF;
      }
    </style>
  </defs>
  <path class="st1" d="M441.9,49c34.3-.5,61.4,26.1,61.7,60.5.3,34.8-26.1,61.4-61.5,62-33.8.6-60.8-25.8-61.3-59.8-.5-35.4,25.7-62.2,61.1-62.7ZM479.8,110.1c0-22.3-16.3-39.2-37.6-39.1-21.6,0-37.4,16.7-37.4,39.2,0,22.2,16,39.2,36.9,39.3,21.4.1,38.2-17.3,38.1-39.4Z"/>
  <path class="st1" d="M55.4,37.8c0-6.8-.1-7-7.2-7-13.2,0-27.3,0-40.5,0s-5-4.6-5-4.6v-12.7s0-4.9,5.6-4.9c36.2,0,80.3,0,116.5,0,7.6,0,7.9,1.8,7.9,7.2s0,5.6,0,8.4c0,5-1.9,6.6-6.5,6.6-13.5,0-27.1,0-40.6,0-6.8,0-6.9,0-6.9,6.9v133.5l-23.2-17s0-94.3,0-116.5Z"/>
  <path class="st1" d="M179.6,154.2c-4.4,8.7-16.2,16.8-31.7,16.8-26.6,0-45.4-15.1-45.4-37.4s15.5-43.7,44.2-43.7,31.6,13.6,32.1,13.8c1-19.4-11.5-32.2-30.5-32.3-2.4,0-7.1,0-11.2,0s-4.2-4.2-4.2-4.2v-14.2s0-4.1,4.7-4.1c10.4,0,20.2.1,29.9,2.3,20.9,4.6,30.7,20,34.2,40.1.8,4.5,1.1,9.1,1.2,13.6.1,20.1,0,66.4,0,66.4,0,0-13.1-9.2-23.3-17ZM148.1,149c13.3,0,26.9-7.7,26.9-20s-14.4-16.8-27-16.8-21.7,9.5-21.7,17.9,8.5,18.9,21.8,18.9Z"/>
  <path class="st1" d="M250.6,64.5c-1.4-1.1-1.6-3.2-.5-4.6l9.4-11.7c1.1-1.5,1.9-1.9,1.9-3s0-25.2,0-30.7c0-4-1.6-6-5.7-5.9-3.4.1-6.8,0-10.2,0-7.2,0-7.5.4-7.5,7.5,0,8.1,0,24.4,0,32.9-4.6,0-8.5,0-12.4,0-15.6.1-14.7-2.1-14.7,15.4,0,4.7,1.9,7,6.7,7.1h20.4s0,3.3,0,4.9c0,10.2,0,20.3,0,30.5s0,18.4,0,29l18.4,13.6c0,4,0,19.3,0,19.3,0,0,.3,2.9,2.4,2.9s2.5-2.6,2.5-2.6v-5.4s0-84,0-84c0,0,0-3.5,0-5s-1.1-2.3-1.1-2.3l-9.7-7.7Z"/>
  <path class="st1" d="M26.1,125.6c0,13.4,0,45.5,0,45.5l-23.6-16.9s0-26.1,0-39.1c0-9.9,0-21.5,0-31.4s0-3.5,4.9-3.5h13.1c4.8,0,5.5,0,5.5,3.3,0,13.4,0,28.8,0,42.1Z"/>
  <path class="st1" d="M25.7,60.1c0,6.6-4.8,11.4-11.4,11.4-6.4,0-11.2-4.8-11.2-11.2,0-6.8,4.4-11.5,11.2-11.5,6.7,0,11.4,4.6,11.4,11.3Z"/>
  <path class="st1" d="M540.8,49c34.3-.5,61.4,26.1,61.7,60.5.3,34.8-26.1,61.4-61.5,62-33.8.6-60.8-25.8-61.3-59.8-.5-35.4,25.7-62.2,61.1-62.7ZM578.7,110.1c0-22.3-16.3-39.2-37.6-39.1-21.6,0-37.4,16.7-37.4,39.2,0,22.2,16,39.2,36.9,39.3,21.4.1,38.2-17.3,38.1-39.4Z"/>
  <path class="st0" d="M327.4,59.2l-9.6-12c-1.1-1.4-3.2-1.6-4.6-.5l-21.2,17-21.2-17c-1.4-1.1-3.5-.9-4.6.5l-9.6,12c-1.1,1.4-.9,3.5.5,4.6l34.9,27.9h0c0,0,34.8-27.9,34.8-27.9,1.4-1.1,1.6-3.2.5-4.6Z"/>
  <path class="st1" d="M358.5,48.9c-3.9,0-7.8,0-12.4,0,0-8.4,0-24.8,0-32.9,0-7.1-.4-7.4-7.5-7.5-3.4,0-6.8,0-10.2,0-4.1-.1-5.8,1.9-5.7,5.9,0,5.5,0,29.9,0,30.7s.7,1.5,1.9,3l9.4,11.7c1.1,1.4.9,3.5-.5,4.6l-9.7,7.7s-1.1.8-1.1,2.3,0,5,0,5c0,0,0,23.3,0,47.3,0,0,0,0,0,0,0,3.4,0,5.3,0,8.7l18.4,13.6c0,4,0,19.3,0,19.3,0,0,.3,2.9,2.4,2.9s2.5-2.6,2.5-2.6v-5.4s0-43.3,0-43.3c0,0,0,0,0,0,0-4.6,0-9,0-13.3,0-10.2,0-20.3,0-30.5,0-1.6,0-2.7,0-4.9h20.3c4.7.2,6.6-2.3,6.6-7.1,0-17.5.9-15.3-14.7-15.4Z"/>
</svg>